<?xml version="1.0" encoding="utf-8"?>
<!-- Generator: Adobe Illustrator 16.0.4, SVG Export Plug-In . SVG Version: 6.00 Build 0)  -->
<!DOCTYPE svg PUBLIC "-//W3C//DTD SVG 1.1//EN" "http://www.w3.org/Graphics/SVG/1.1/DTD/svg11.dtd" [
	<!ENTITY ns_flows "http://ns.adobe.com/Flows/1.0/">
	<!ENTITY ns_extend "http://ns.adobe.com/Extensibility/1.0/">
	<!ENTITY ns_ai "http://ns.adobe.com/AdobeIllustrator/10.0/">
	<!ENTITY ns_graphs "http://ns.adobe.com/Graphs/1.0/">
]>
<svg version="1.1" id="Layer_1" xmlns:x="&ns_extend;" xmlns:i="&ns_ai;" xmlns:graph="&ns_graphs;"
	 xmlns="http://www.w3.org/2000/svg" xmlns:xlink="http://www.w3.org/1999/xlink" xmlns:a="http://ns.adobe.com/AdobeSVGViewerExtensions/3.0/"
	 x="0px" y="0px" width="843.575px" height="132.802px" viewBox="0 0 843.575 132.802"
	 style="enable-background:new 0 0 843.575 132.802;" xml:space="preserve">
<g>
	<g>
		<path style="fill:#FFFFFF;" d="M39.401,105.826c-0.84,0-1.676-0.207-2.392-0.584c-1.224-0.67-2.111-1.733-2.488-3.041
			c-0.428-1.292-0.291-2.685,0.34-3.901L66.27,38.756c3.709-7.042,9.048-10.942,14.982-10.942c5.949,0,11.283,3.9,15.002,10.942
			l24.834,47.076h-0.046l1.771,3.401c1.815,3.418,4.039,5.48,5.945,5.48c1.925,0,4.121-2.062,5.935-5.48L166.06,29.66
			c1.293-2.401,4.495-3.416,6.944-2.109c1.168,0.63,2.106,1.678,2.484,2.994c0.433,1.293,0.292,2.693-0.337,3.925l-31.41,59.527
			c-3.71,7.08-9.019,10.952-14.983,10.952c-5.945,0-11.288-3.872-14.998-10.952L88.834,46.8l0.091-0.04l-1.725-3.248
			c-1.817-3.418-4.039-5.433-5.949-5.433c-1.922,0-4.117,2.015-5.935,5.433l-31.414,59.575
			C43.02,104.779,41.294,105.826,39.401,105.826z"/>
		<path style="fill:#FFFFFF;" d="M128.758,69.493c-0.851,0-1.644-0.215-2.415-0.592c-2.485-1.301-3.447-4.425-2.094-6.895
			l17.007-32.347c1.262-2.401,4.509-3.416,6.911-2.109c1.218,0.63,2.103,1.678,2.517,2.994c0.379,1.293,0.255,2.693-0.366,3.925
			l-17.012,32.324C132.423,68.439,130.683,69.493,128.758,69.493z"/>
		<path style="fill:#FFFFFF;" d="M64.777,105.826L64.777,105.826c-0.808,0-1.647-0.207-2.367-0.584
			c-1.219-0.63-2.103-1.733-2.517-3.041c-0.377-1.292-0.253-2.685,0.362-3.872l12.773-24.242c2.018-3.878,5.266-6.079,8.789-6.079
			c3.541,0,6.743,2.2,8.796,6.079l12.775,24.242c0.625,1.187,0.748,2.581,0.371,3.872c-0.417,1.308-1.301,2.411-2.517,3.041
			c-2.446,1.262-5.647,0.293-6.911-2.155l-12.514-23.71l-12.499,23.71C68.44,104.779,66.709,105.826,64.777,105.826z"/>
	</g>
	<g>
		<path style="fill:#FFFFFF;" d="M236.067,29.133c-0.295-0.665-0.72-1.199-1.275-1.607c-0.553-0.405-1.199-0.608-1.938-0.608
			s-1.384,0.167-1.938,0.497c-0.553,0.334-1.017,0.906-1.384,1.718l-29.24,71.546c-0.148,0.518-0.186,0.959-0.111,1.329
			c0.074,0.814,0.371,1.494,0.887,2.049s1.292,0.83,2.327,0.83c0.665,0,1.254-0.182,1.771-0.553c0.516-0.368,0.924-0.92,1.219-1.661
			l8.153-20.268h36.043l8.3,20.268c0.295,0.664,0.72,1.2,1.275,1.605c0.553,0.408,1.199,0.608,1.938,0.608
			c0.887,0,1.661-0.275,2.325-0.83s0.997-1.346,0.997-2.381c0-0.444-0.074-0.887-0.221-1.329L236.067,29.133z M217.169,75.87
			l15.232-37.861l15.505,37.861H217.169z"/>
		<path style="fill:#FFFFFF;" d="M331.867,27.25c-0.814,0-1.533,0.295-2.159,0.885c-0.629,0.593-0.942,1.329-0.942,2.216v62.413
			l-47.735-64.295c-0.296-0.443-0.703-0.757-1.217-0.942c-0.519-0.182-0.999-0.276-1.44-0.276c-0.814,0-1.552,0.276-2.216,0.83
			c-0.665,0.555-0.997,1.384-0.997,2.494v71.214c0,0.813,0.276,1.515,0.83,2.104c0.555,0.59,1.311,0.886,2.271,0.886
			c0.887,0,1.622-0.295,2.215-0.886c0.59-0.59,0.886-1.292,0.886-2.104V39.645l47.513,64.025c0.294,0.371,0.702,0.647,1.218,0.831
			c0.516,0.186,0.998,0.277,1.44,0.277c0.887,0,1.678-0.314,2.381-0.941c0.701-0.627,1.052-1.496,1.052-2.604V30.351
			c0-0.887-0.276-1.623-0.831-2.216C333.583,27.545,332.826,27.25,331.867,27.25z"/>
		<path style="fill:#FFFFFF;" d="M388.795,50.729c-4.209-2.583-8.971-3.877-14.288-3.877c-5.244,0-9.988,1.293-14.23,3.877
			c-4.248,2.585-7.606,6.092-10.081,10.522c-2.474,4.43-3.709,9.489-3.709,15.173c0,5.612,1.236,10.65,3.709,15.118
			c2.474,4.468,5.833,7.974,10.081,10.522c4.243,2.548,8.986,3.821,14.23,3.821c5.317,0,10.079-1.273,14.288-3.821
			c4.207-2.548,7.548-6.054,10.023-10.522c2.472-4.467,3.71-9.506,3.71-15.118c0-5.684-1.238-10.743-3.71-15.173
			C396.343,56.822,393.002,53.314,388.795,50.729z M393.113,88.385c-1.845,3.472-4.374,6.222-7.586,8.25
			c-3.21,2.034-6.885,3.047-11.02,3.047c-4.061,0-7.698-1.013-10.909-3.047c-3.212-2.028-5.76-4.779-7.642-8.25
			c-1.883-3.469-2.824-7.457-2.824-11.961s0.941-8.509,2.824-12.016c1.882-3.507,4.43-6.276,7.642-8.307
			c3.211-2.03,6.848-3.047,10.909-3.047c4.135,0,7.809,1.017,11.02,3.047c3.212,2.03,5.742,4.799,7.586,8.307
			s2.769,7.512,2.769,12.016S394.958,84.917,393.113,88.385z"/>
		<path style="fill:#FFFFFF;" d="M434.423,48.404h-11.075V36.111c0-0.887-0.315-1.663-0.943-2.327
			c-0.627-0.665-1.421-0.997-2.379-0.997c-0.961,0-1.755,0.332-2.382,0.997c-0.627,0.664-0.941,1.44-0.941,2.327v12.292h-8.085
			c-0.886,0-1.644,0.297-2.27,0.887c-0.629,0.59-0.941,1.329-0.941,2.214c0,0.814,0.312,1.533,0.941,2.159
			c0.626,0.629,1.384,0.942,2.27,0.942h8.085v37.435c0,3.322,0.46,5.87,1.384,7.642c0.922,1.771,2.084,3.01,3.489,3.71
			c1.401,0.703,2.769,1.108,4.098,1.219c1.329,0.11,2.326,0.166,2.99,0.166c1.624,0,3.027-0.35,4.209-1.053
			c1.181-0.701,1.772-1.566,1.772-2.602c0-0.813-0.24-1.477-0.72-1.993s-1.052-0.776-1.717-0.776c-0.592,0-1.126,0.093-1.605,0.277
			c-0.481,0.184-1.016,0.276-1.605,0.276c-0.887,0-1.774-0.167-2.659-0.498c-0.885-0.333-1.605-1.015-2.159-2.049
			c-0.555-1.035-0.831-2.585-0.831-4.652V54.606h11.075c0.885,0,1.623-0.293,2.216-0.887c0.588-0.59,0.885-1.291,0.885-2.104
			c0-0.885-0.297-1.641-0.885-2.27C436.046,48.719,435.309,48.404,434.423,48.404z"/>
		<path style="fill:#FFFFFF;" d="M485.149,53.664c-2.364-2.25-5.077-3.948-8.142-5.093c-3.063-1.145-6.222-1.718-9.47-1.718
			c-4.43,0-8.622,1.202-12.571,3.6c-3.95,2.401-7.162,5.814-9.635,10.244c-2.474,4.431-3.71,9.785-3.71,16.06
			c0,5.834,1.219,10.928,3.654,15.284c2.438,4.357,5.833,7.753,10.19,10.188c4.355,2.438,9.377,3.655,15.063,3.655
			c4.209,0,8.084-0.979,11.628-2.936s6.425-4.265,8.639-6.922c0.737-0.665,1.108-1.44,1.108-2.326c0-0.737-0.278-1.401-0.831-1.993
			c-0.553-0.59-1.236-0.885-2.049-0.885c-0.739,0-1.514,0.331-2.325,0.995c-1.036,1.329-2.344,2.604-3.933,3.822
			c-1.588,1.218-3.415,2.197-5.482,2.935c-2.067,0.738-4.357,1.107-6.867,1.107c-4.726,0-8.75-1.033-12.072-3.103
			c-3.324-2.064-5.87-4.872-7.642-8.416c-1.757-3.514-2.638-7.427-2.653-11.74h41.86c0.885,0,1.661-0.313,2.326-0.941
			c0.664-0.627,0.997-1.384,0.997-2.271c-0.074-4.28-0.85-8.047-2.327-11.296C489.429,58.667,487.51,55.918,485.149,53.664z
			 M449.819,65.958c1.18-2.916,2.713-5.317,4.595-7.199s3.986-3.266,6.313-4.153c2.326-0.887,4.595-1.329,6.811-1.329
			c2.953,0,5.777,0.627,8.474,1.882c2.694,1.258,5,3.103,6.922,5.538c1.919,2.438,3.062,5.391,3.433,8.861v0.885h-37.813
			C448.849,68.833,449.263,67.332,449.819,65.958z"/>
		<path style="fill:#FFFFFF;" d="M598.668,27.25c-1.18-0.147-2.178,0.332-2.988,1.44l-29.216,43.558l-29.04-43.558
			c-0.371-0.516-0.832-0.885-1.384-1.108c-0.553-0.223-1.091-0.332-1.607-0.332c-0.961,0-1.755,0.332-2.381,0.997
			c-0.629,0.665-0.941,1.44-0.941,2.327v70.88c0,0.887,0.293,1.663,0.887,2.327c0.59,0.665,1.364,0.997,2.324,0.997
			s1.753-0.333,2.382-0.997c0.626-0.664,0.941-1.44,0.941-2.327v-61.14l26.027,39.654c0.293,0.445,0.682,0.796,1.162,1.054
			c0.479,0.26,0.979,0.351,1.496,0.277c0.59,0.074,1.108-0.017,1.551-0.277c0.442-0.258,0.776-0.609,0.997-1.054l26.027-39.4v60.886
			c0,0.887,0.331,1.663,0.995,2.327c0.666,0.665,1.514,0.997,2.549,0.997c0.958,0,1.771-0.333,2.435-0.997
			c0.665-0.664,0.998-1.44,0.998-2.327v-70.88c0-0.959-0.315-1.753-0.942-2.382C600.312,27.565,599.555,27.25,598.668,27.25z"/>
		<path style="fill:#FFFFFF;" d="M659.473,48.515c-1.035,0-1.848,0.331-2.435,0.995c-0.593,0.666-0.887,1.44-0.887,2.327V83.07
			c0,5.315-1.44,9.357-4.32,12.126c-2.88,2.769-6.866,4.153-11.962,4.153c-5.022,0-8.953-1.384-11.795-4.153
			c-2.843-2.769-4.262-6.811-4.262-12.126V51.837c0-0.887-0.315-1.661-0.942-2.327c-0.627-0.665-1.421-0.995-2.382-0.995
			c-0.958,0-1.755,0.331-2.379,0.995c-0.631,0.666-0.943,1.44-0.943,2.327V83.07c0,7.309,2.049,12.885,6.146,16.724
			c4.098,3.838,9.617,5.759,16.558,5.759c7.015,0,12.589-1.92,16.724-5.759c4.135-3.839,6.202-9.416,6.202-16.724V51.837
			c0-0.887-0.315-1.661-0.939-2.327C661.225,48.846,660.431,48.515,659.473,48.515z"/>
		<path style="fill:#FFFFFF;" d="M709.145,78.583c-1.661-1.218-3.583-2.231-5.76-3.044c-2.179-0.812-4.448-1.514-6.811-2.104
			c-2.806-0.738-5.335-1.551-7.586-2.438c-2.253-0.885-4.062-1.993-5.426-3.322c-1.368-1.329-2.123-3.062-2.271-5.206
			c0-2.288,0.627-4.133,1.884-5.537c1.254-1.402,2.824-2.454,4.706-3.157c1.884-0.7,3.894-1.05,6.037-1.05
			c2.805,0,5.427,0.516,7.863,1.55s4.541,2.548,6.313,4.541c0.516,0.592,1.163,0.885,1.938,0.885c0.775,0,1.457-0.221,2.049-0.665
			c0.737-0.665,1.108-1.42,1.108-2.27c0-0.848-0.333-1.607-0.997-2.271c-1.625-1.919-3.472-3.433-5.538-4.54
			c-2.067-1.109-4.171-1.9-6.313-2.382c-2.142-0.479-4.136-0.72-5.979-0.72c-3.694,0-6.998,0.665-9.914,1.993
			c-2.917,1.331-5.224,3.177-6.922,5.538c-1.7,2.364-2.546,5.096-2.546,8.197c0,2.658,0.553,4.912,1.661,6.757
			c1.108,1.845,2.565,3.415,4.375,4.707c1.809,1.292,3.894,2.364,6.257,3.21c2.363,0.85,4.799,1.607,7.31,2.271
			c2.363,0.592,4.597,1.292,6.701,2.104c2.103,0.812,3.821,1.92,5.15,3.322c1.329,1.403,1.993,3.25,1.993,5.537
			c0,2.216-0.665,4.042-1.993,5.482c-1.329,1.44-3.01,2.512-5.04,3.212c-2.032,0.703-4.081,1.053-6.146,1.053
			c-3.914,0-7.293-0.793-10.134-2.381c-2.843-1.587-5.261-3.672-7.254-6.257c-0.665-0.665-1.384-1.034-2.16-1.108
			c-0.774-0.072-1.458,0.148-2.049,0.665c-0.885,0.518-1.347,1.202-1.384,2.049c-0.037,0.85,0.239,1.718,0.831,2.604
			c2.88,3.619,6.184,6.202,9.912,7.752c3.728,1.551,7.586,2.327,11.574,2.327c3.691,0,7.05-0.629,10.079-1.883
			c3.027-1.254,5.444-3.062,7.254-5.426c1.808-2.362,2.713-5.168,2.713-8.418c0-2.804-0.499-5.131-1.496-6.976
			S710.806,79.802,709.145,78.583z"/>
		<path style="fill:#FFFFFF;" d="M727.475,47.187c-0.961,0-1.755,0.331-2.381,0.995c-0.629,0.664-0.942,1.44-0.942,2.327v50.945
			c0,0.887,0.313,1.663,0.942,2.327c0.626,0.665,1.42,0.997,2.381,0.997c0.885,0,1.661-0.333,2.325-0.997
			c0.665-0.664,0.997-1.44,0.997-2.327V50.508c0-0.887-0.315-1.663-0.941-2.327C729.227,47.517,728.433,47.187,727.475,47.187z"/>
		<path style="fill:#FFFFFF;" d="M727.584,30.462c-1.477,0-2.641,0.351-3.487,1.051c-0.85,0.705-1.274,1.718-1.274,3.047v1.106
			c0,1.33,0.388,2.346,1.163,3.047c0.776,0.702,1.938,1.052,3.489,1.052c1.476,0,2.602-0.351,3.377-1.052
			c0.776-0.701,1.164-1.717,1.164-3.047V34.56c0-1.329-0.388-2.342-1.164-3.047C730.076,30.813,728.987,30.462,727.584,30.462z"/>
		<path style="fill:#FFFFFF;" d="M787.611,94.422c-0.518-0.555-1.217-0.83-2.104-0.83c-1.033,0-1.865,0.387-2.49,1.162
			c-0.629,0.776-1.681,1.57-3.157,2.381c-1.108,0.665-2.492,1.256-4.153,1.772c-1.663,0.518-3.971,0.775-6.922,0.775
			c-4.283,0-8.068-1.013-11.353-3.047c-3.285-2.028-5.833-4.817-7.641-8.362c-1.811-3.543-2.715-7.531-2.715-11.96
			c0-4.356,0.959-8.287,2.88-11.794c1.919-3.508,4.541-6.295,7.863-8.362c3.323-2.067,7.05-3.103,11.187-3.103
			c2.216,0,4.226,0.186,6.037,0.555c1.808,0.369,3.192,0.774,4.153,1.219c1.032,0.516,1.808,1.069,2.325,1.659
			c0.516,0.593,1.052,1.109,1.605,1.551c0.555,0.443,1.311,0.665,2.271,0.665c0.811,0,1.494-0.349,2.049-1.052
			c0.553-0.7,0.83-1.42,0.83-2.158c0-1.552-0.904-2.992-2.713-4.32c-1.809-1.329-4.19-2.381-7.143-3.157
			c-2.955-0.776-6.202-1.164-9.747-1.164c-5.686,0-10.632,1.349-14.841,4.042c-4.209,2.698-7.496,6.258-9.858,10.689
			c-2.364,4.43-3.543,9.342-3.543,14.73c0,5.613,1.162,10.651,3.489,15.119c2.326,4.468,5.573,7.993,9.745,10.576
			c4.172,2.585,8.989,3.876,14.455,3.876c3.986,0,7.492-0.538,10.521-1.606c3.027-1.069,5.408-2.326,7.145-3.764
			c1.733-1.44,2.602-2.75,2.602-3.934C788.387,95.695,788.127,94.977,787.611,94.422z"/>
	</g>
</g>
</svg>
